<svg xmlns="http://www.w3.org/2000/svg" viewBox="0 0 240 240" width="240" height="240">
  <defs>
    <clipPath id="round"><circle cx="120" cy="120" r="118"/></clipPath>
  </defs>
  <g clip-path="url(#round)">
    <rect width="240" height="240" fill="#000000"/>
    <g>
      <animateTransform attributeName="transform" type="translate" values="0,0;0,1;0,0" dur="3.6s" repeatCount="indefinite"/>
      <circle cx="120" cy="108" r="88" fill="#FFD93D" stroke="#E8A800" stroke-width="3"/>
      <g fill="#00ff88">
        <rect x="76" y="88" width="13" height="13" rx="2"/><rect x="89" y="88" width="13" height="13" rx="2"/>
        <rect x="76" y="101" width="13" height="13" rx="2"/><rect x="89" y="101" width="13" height="13" rx="2"/>
        <rect x="138" y="88" width="13" height="13" rx="2"/><rect x="151" y="88" width="13" height="13" rx="2"/>
        <rect x="138" y="101" width="13" height="13" rx="2"/><rect x="151" y="101" width="13" height="13" rx="2"/>
      </g>
      <g fill="#aaffcc">
        <rect x="84" y="94" width="5" height="5"><animate attributeName="x" values="84;86;84" dur="2.8s" repeatCount="indefinite"/></rect>
        <rect x="146" y="94" width="5" height="5"><animate attributeName="x" values="146;148;146" dur="2.8s" repeatCount="indefinite"/></rect>
      </g>
      <path d="M76 76 H102 M138 76 H164" fill="none" stroke="#00ff88" stroke-width="4" stroke-linecap="square"/>
      <path d="M104 145 H136" fill="none" stroke="#00ff88" stroke-width="4" stroke-linecap="round"/>
      <g id="blink-eyelids">
        <rect x="73" y="86" width="32" height="0" fill="#FFD93D"><animate attributeName="height" values="0;0;30;30;0;0" keyTimes="0;.91;.93;.95;.97;1" dur="5.6s" repeatCount="indefinite"/></rect>
        <rect x="135" y="86" width="32" height="0" fill="#FFD93D"><animate attributeName="height" values="0;0;30;30;0;0" keyTimes="0;.91;.93;.95;.97;1" dur="5.6s" begin=".025s" repeatCount="indefinite"/></rect>
      </g>
    </g>
    <g fill="#00ff88">
      <rect x="22" y="94" width="6" height="28"><animate attributeName="height" values="12;28;18;12" dur="1.4s" repeatCount="indefinite"/><animate attributeName="y" values="102;94;99;102" dur="1.4s" repeatCount="indefinite"/></rect>
      <rect x="32" y="86" width="6" height="44"><animate attributeName="height" values="20;44;28;20" dur="1.4s" begin=".15s" repeatCount="indefinite"/><animate attributeName="y" values="98;86;94;98" dur="1.4s" begin=".15s" repeatCount="indefinite"/></rect>
      <rect x="202" y="94" width="6" height="28"><animate attributeName="height" values="18;28;12;18" dur="1.4s" repeatCount="indefinite"/><animate attributeName="y" values="99;94;102;99" dur="1.4s" repeatCount="indefinite"/></rect>
      <rect x="212" y="86" width="6" height="44"><animate attributeName="height" values="28;44;20;28" dur="1.4s" begin=".15s" repeatCount="indefinite"/><animate attributeName="y" values="94;86;98;94" dur="1.4s" begin=".15s" repeatCount="indefinite"/></rect>
    </g>
    <rect x="51" y="204" width="138" height="27" rx="4" fill="#001a10" stroke="#00ff88" stroke-width="2"/>
    <text x="120" y="222" fill="#aaffcc" font-family="monospace" font-size="15" font-weight="700" text-anchor="middle">Escuchando</text>
  </g>
</svg>
