<svg xmlns="http://www.w3.org/2000/svg" viewBox="0 0 240 240" width="240" height="240">
  <defs><clipPath id="round"><circle cx="120" cy="120" r="118"/></clipPath><radialGradient id="face" cx="40%" cy="35%"><stop stop-color="#FFDDC0"/><stop offset=".7" stop-color="#EFA77F"/><stop offset="1" stop-color="#B9635C"/></radialGradient><linearGradient id="hair" x1="0" y1="0" x2="1" y2="1"><stop stop-color="#52627D"/><stop offset=".45" stop-color="#27344D"/><stop offset="1" stop-color="#111827"/></linearGradient><radialGradient id="iris"><stop stop-color="#FF7D75"/><stop offset="1" stop-color="#A9344B"/></radialGradient></defs>
  <g clip-path="url(#round)"><rect width="240" height="240" fill="#08151F"/><g>
    <animateTransform attributeName="transform" type="translate" values="0,0;0,2;0,0;-2,0;2,0;-1,0;1,0;0,0;0,0" keyTimes="0;.14;.22;.32;.36;.4;.44;.5;1" dur="3.3s" repeatCount="indefinite"/>
    <path d="M39 119 Q36 51 83 23 Q120 2 161 23 Q204 54 201 124 L184 174 Q177 72 120 67 Q62 72 56 174Z" fill="url(#hair)" stroke="#0B1220" stroke-width="3"/><circle cx="120" cy="124" r="86" fill="url(#face)" stroke="#994D52" stroke-width="2.5"/><circle cx="120" cy="124" r="86" fill="#D93F55" opacity=".07"><animate attributeName="opacity" values=".07;.07;.2;.12;.07" keyTimes="0;.2;.4;.58;1" dur="3.3s" repeatCount="indefinite"/></circle>
    <ellipse cx="88" cy="122" rx="20" ry="14" fill="#fff" stroke="#3B2C35" stroke-width="2"/><ellipse cx="152" cy="122" rx="20" ry="14" fill="#fff" stroke="#3B2C35" stroke-width="2"/><circle cx="92" cy="123" r="9" fill="url(#iris)"/><circle cx="92" cy="123" r="5" fill="#08151F"/><circle cx="148" cy="123" r="9" fill="url(#iris)"/><circle cx="148" cy="123" r="5" fill="#08151F"/>
    <path d="M64 88 L108 103M176 88 L132 103" fill="none" stroke="#633E43" stroke-width="6" stroke-linecap="round"><animate attributeName="d" values="M64 88 L108 103M176 88 L132 103;M66 94 L108 107M174 94 L132 107;M64 88 L108 103M176 88 L132 103" dur="3.3s" repeatCount="indefinite"/></path><path d="M87 164 Q120 139 153 164" fill="none" stroke="#81414A" stroke-width="5" stroke-linecap="round"><animate attributeName="d" values="M87 164 Q120 139 153 164;M91 165 Q120 135 149 165;M87 164 Q120 139 153 164" dur="3.3s" repeatCount="indefinite"/></path>
    <path d="M53 75 Q72 30 121 28 Q172 30 188 73 Q159 55 120 58 Q80 55 53 75Z" fill="url(#hair)"/>
    <g><animateTransform attributeName="transform" type="rotate" values="-1 67 48;2 67 48;-.8 67 48;-1 67 48" dur="5.8s" repeatCount="indefinite"/><path d="M57 51 Q72 35 93 38 Q91 67 67 91 Q60 73 57 51Z" fill="url(#hair)"/><path d="M66 51 Q72 44 82 43" fill="none" stroke="#8392AE" stroke-width="3" opacity=".38"/></g>
    <g><animateTransform attributeName="transform" type="rotate" values="0 104 34;2.4 104 34;-1.2 104 34;0 104 34" dur="6.1s" begin="-.35s" repeatCount="indefinite"/><path d="M88 36 Q107 24 125 34 Q119 65 98 88 Q90 64 88 36Z" fill="url(#hair)"/><path d="M101 37 Q108 34 115 37" fill="none" stroke="#9AA7BE" stroke-width="3" opacity=".42"/></g>
    <g><animateTransform attributeName="transform" type="rotate" values=".5 139 35;2.8 139 35;-1 139 35;.5 139 35" dur="6.35s" begin="-.7s" repeatCount="indefinite"/><path d="M121 34 Q141 24 160 38 Q157 65 135 86 Q126 60 121 34Z" fill="url(#hair)"/><path d="M136 37 Q144 34 151 40" fill="none" stroke="#9AA7BE" stroke-width="3" opacity=".35"/></g>
    <g><animateTransform attributeName="transform" type="rotate" values="1 174 47;3 174 47;-.4 174 47;1 174 47" dur="6.55s" begin="-1s" repeatCount="indefinite"/><path d="M154 38 Q178 36 188 55 Q183 77 164 94 Q160 64 154 38Z" fill="url(#hair)"/></g>
    <g fill="none" stroke="#FF765F" stroke-width="4" stroke-linecap="round"><path d="M47 79 Q34 60 45 45" opacity="0"><animate attributeName="opacity" values="0;0;1;.4;0" keyTimes="0;.22;.34;.58;1" dur="3.3s" repeatCount="indefinite"/><animateTransform attributeName="transform" type="translate" values="0,8;0,8;0,-7;0,-18;0,-18" dur="3.3s" repeatCount="indefinite"/></path><path d="M193 79 Q206 60 195 45" opacity="0"><animate attributeName="opacity" values="0;0;1;.4;0" keyTimes="0;.24;.36;.6;1" dur="3.3s" repeatCount="indefinite"/><animateTransform attributeName="transform" type="translate" values="0,8;0,8;0,-7;0,-18;0,-18" dur="3.3s" begin=".1s" repeatCount="indefinite"/></path></g>
  </g></g>
</svg>
