<svg xmlns="http://www.w3.org/2000/svg" viewBox="0 0 240 240" width="240" height="240"><defs><clipPath id="round"><circle cx="120" cy="120" r="118" /></clipPath><radialGradient id="face" cx="40%" cy="35%"><stop stop-color="#FFDDC0" /><stop offset=".7" stop-color="#EFA77F" /><stop offset="1" stop-color="#B9635C" /></radialGradient><linearGradient id="hair" x1="0" y1="0" x2="1" y2="1"><stop stop-color="#87563F" /><stop offset=".45" stop-color="#4A2C25" /><stop offset="1" stop-color="#211517" /></linearGradient><radialGradient id="iris" data-eye-palette="canonical-blue"><stop stop-color="#8EC5FF" /><stop offset="1" stop-color="#315E9A" /></radialGradient></defs><g clip-path="url(#round)"><rect width="240" height="240" fill="#000000" /><g><animateTransform attributeName="transform" type="translate" values="0,0;0,0;0,-1;0,-2;0,-2;-1,-2;1,-2;0,-2;0,-1;0,0" keyTimes="0;.20;.29;.38;.52;.58;.63;.70;.86;1" dur="5.6s" repeatCount="indefinite" /><path d="M28 126 Q27 54 72 26 Q120 4 168 26 Q213 54 212 126 L192 174 Q181 78 120 69 Q60 76 48 174Z" fill="url(#hair)" stroke="#171316" stroke-width="3" /><circle cx="120" cy="124" r="90" fill="url(#face)" stroke="#994D52" stroke-width="2.5" /><circle cx="120" cy="124" r="90" fill="#D93F55" opacity=".07"><animate attributeName="opacity" values=".07;.07;.09;.14;.22;.27;.28;.25;.14;.07" keyTimes="0;.20;.29;.38;.52;.58;.63;.70;.86;1" dur="5.6s" repeatCount="indefinite" /></circle><ellipse cx="88" cy="122" rx="20" ry="14" fill="#fff" stroke="#3B2C35" stroke-width="2"><animate attributeName="ry" values="14;14;13;11;8;8;8;9;13;14" keyTimes="0;.20;.29;.38;.52;.58;.63;.70;.86;1" dur="5.6s" repeatCount="indefinite" /></ellipse><ellipse cx="152" cy="122" rx="20" ry="14" fill="#fff" stroke="#3B2C35" stroke-width="2"><animate attributeName="ry" values="14;14;13;11;8;8;8;9;13;14" keyTimes="0;.20;.29;.38;.52;.58;.63;.70;.86;1" dur="5.6s" repeatCount="indefinite" /></ellipse><circle cx="92" cy="123" r="9" fill="url(#iris)" data-eye-role="iris"><animate attributeName="cx" values="92;92;92;94;95;95;95;95;93;92" keyTimes="0;.20;.29;.38;.52;.58;.63;.70;.86;1" dur="5.6s" repeatCount="indefinite" /></circle><circle cx="92" cy="123" r="5" fill="#315E9A" data-eye-role="pupil"><animate attributeName="cx" values="92;92;92;94;95;95;95;95;93;92" keyTimes="0;.20;.29;.38;.52;.58;.63;.70;.86;1" dur="5.6s" repeatCount="indefinite" /></circle><circle cx="148" cy="123" r="9" fill="url(#iris)" data-eye-role="iris"><animate attributeName="cx" values="148;148;148;144;145;145;145;145;147;148" keyTimes="0;.20;.29;.38;.52;.58;.63;.70;.86;1" dur="5.6s" repeatCount="indefinite" /></circle><circle cx="148" cy="123" r="5" fill="#315E9A" data-eye-role="pupil"><animate attributeName="cx" values="148;148;148;144;145;145;145;145;147;148" keyTimes="0;.20;.29;.38;.52;.58;.63;.70;.86;1" dur="5.6s" repeatCount="indefinite" /></circle><path d="M64 88 L108 103M176 88 L132 103" fill="none" stroke="#633E43" stroke-width="6" stroke-linecap="round"><animate attributeName="d" values="M64 88 L108 103M176 88 L132 103;M64 88 L108 103M176 88 L132 103;M64 88 L108 103M176 88 L132 103;M67 95 L109 108M174 93 L131 107;M67 95 L109 108M174 93 L131 107;M67 95 L109 108M174 93 L131 107;M67 95 L109 108M173 93 L131 107;M67 95 L109 108M174 93 L131 107;M64 88 L108 103M176 88 L132 103;M64 88 L108 103M176 88 L132 103" keyTimes="0;.20;.29;.38;.52;.58;.63;.70;.86;1" dur="5.6s" repeatCount="indefinite" /></path><path d="M87 164 Q120 139 153 164" fill="none" stroke="#81414A" stroke-width="5" stroke-linecap="round"><animate attributeName="d" values="M87 164 Q120 139 153 164;M87 164 Q120 139 153 164;M92 164 Q120 153 148 164;M92 164 Q120 153 148 164;M90 166 Q120 133 150 166;M90 166 Q120 133 150 166;M90 166 Q120 133 150 166;M90 166 Q120 133 150 166;M92 164 Q120 153 148 164;M87 164 Q120 139 153 164" keyTimes="0;.20;.29;.38;.52;.58;.63;.70;.86;1" dur="5.6s" repeatCount="indefinite" /></path><path d="M48 75 Q70 27 121 27 Q170 27 191 73 Q153 51 132 57 L120 53 L107 62 L92 57 L76 66 Q60 69 48 75Z" fill="url(#hair)" /><g><animateTransform attributeName="transform" type="rotate" values="-1 67 48;2 67 48;-.8 67 48;-1 67 48" dur="5.8s" repeatCount="indefinite" /><path d="M54 51 Q73 33 99 39 Q95 53 87 64 L80 57 L72 78 L64 67 L57 83 Q56 65 54 51Z" fill="url(#hair)" /><path d="M66 51 Q72 44 82 43" fill="none" stroke="#A46F52" stroke-width="3" opacity=".38" /></g><g><animateTransform attributeName="transform" type="rotate" values="0 104 34;2.4 104 34;-1.2 104 34;0 104 34" dur="6.1s" begin="-.35s" repeatCount="indefinite" /><path d="M83 38 Q111 20 147 34 Q141 50 130 63 L121 53 L111 77 L102 67 L91 92 Q87 64 83 38Z" fill="url(#hair)" /><path d="M101 37 Q108 34 115 37" fill="none" stroke="#B48060" stroke-width="3" opacity=".42" /></g><g><animateTransform attributeName="transform" type="rotate" values=".5 139 35;2.8 139 35;-1 139 35;.5 139 35" dur="6.35s" begin="-.7s" repeatCount="indefinite" /><path d="M116 32 Q151 18 183 43 Q179 59 168 73 L158 62 L147 87 L137 72 L128 95 Q124 62 116 32Z" fill="url(#hair)" /><path d="M136 37 Q144 34 151 40" fill="none" stroke="#B48060" stroke-width="3" opacity=".35" /></g><g><animateTransform attributeName="transform" type="rotate" values="1 174 47;3 174 47;-.4 174 47;1 174 47" dur="6.55s" begin="-1s" repeatCount="indefinite" /><path d="M151 40 Q179 38 192 57 Q190 70 181 81 L174 72 L165 97 Q162 67 151 40Z" fill="url(#hair)" /></g><g fill="none" stroke="#FF765F" stroke-width="4" stroke-linecap="round"><path d="M47 79 Q34 60 45 45" opacity="0"><animate attributeName="opacity" values="0;0;0;.15;.7;1;.8;.45;.1;0" keyTimes="0;.20;.29;.38;.52;.58;.63;.70;.86;1" dur="5.6s" repeatCount="indefinite" /><animateTransform attributeName="transform" type="translate" values="0,8;0,8;0,8;0,5;0,-2;0,-8;0,-11;0,-14;0,-4;0,8" keyTimes="0;.20;.29;.38;.52;.58;.63;.70;.86;1" dur="5.6s" repeatCount="indefinite" /></path><path d="M193 79 Q206 60 195 45" opacity="0"><animate attributeName="opacity" values="0;0;0;.15;.7;1;.8;.45;.1;0" keyTimes="0;.20;.29;.38;.52;.58;.63;.70;.86;1" dur="5.6s" repeatCount="indefinite" /><animateTransform attributeName="transform" type="translate" values="0,8;0,8;0,8;0,5;0,-2;0,-8;0,-11;0,-14;0,-4;0,8" keyTimes="0;.20;.29;.38;.52;.58;.63;.70;.86;1" dur="5.6s" repeatCount="indefinite" /></path></g><g id="blink-eyelids" data-blink="single"><ellipse cx="88" cy="122" rx="21" ry="0" fill="#DA947A"><animate attributeName="ry" values="0;0;14;14;0;0" keyTimes="0;.94;.96;.975;.995;1" dur="5.6s" repeatCount="indefinite" /></ellipse><path d="M72.9 122 Q88 124 103.1 122" fill="none" stroke="#633E43" stroke-width="2.5" stroke-linecap="round" opacity="0"><animate attributeName="opacity" values="0;0;1;1;0;0" keyTimes="0;.94;.96;.975;.995;1" dur="5.6s" repeatCount="indefinite" /></path><ellipse cx="152" cy="122" rx="21" ry="0" fill="#DA947A"><animate attributeName="ry" values="0;0;14;14;0;0" keyTimes="0;.94;.96;.975;.995;1" dur="5.6s" begin=".025s" repeatCount="indefinite" /></ellipse><path d="M136.9 122 Q152 124 167.1 122" fill="none" stroke="#633E43" stroke-width="2.5" stroke-linecap="round" opacity="0"><animate attributeName="opacity" values="0;0;1;1;0;0" keyTimes="0;.94;.96;.975;.995;1" dur="5.6s" begin=".025s" repeatCount="indefinite" /></path></g></g></g><g id="micro-angry-sequence" /></svg>