<svg xmlns="http://www.w3.org/2000/svg" viewBox="0 0 240 240" width="240" height="240">
  <defs><clipPath id="round"><circle cx="120" cy="120" r="118"/></clipPath><radialGradient id="face" cx="40%" cy="35%"><stop stop-color="#FFE0C2"/><stop offset=".7" stop-color="#F3B98A"/><stop offset="1" stop-color="#C97B63"/></radialGradient><linearGradient id="hair" x1="0" y1="0" x2="1" y2="1"><stop stop-color="#52627D"/><stop offset=".45" stop-color="#27344D"/><stop offset="1" stop-color="#111827"/></linearGradient><radialGradient id="iris"><stop stop-color="#C995FF"/><stop offset="1" stop-color="#7343A7"/></radialGradient></defs>
  <g clip-path="url(#round)"><rect width="240" height="240" fill="#08151F"/><g>
    <animateTransform attributeName="transform" type="rotate" values="0 120 124;0 120 124;-2.5 120 124;2 120 124;0 120 124" keyTimes="0;.2;.31;.45;1" dur="3.8s" repeatCount="indefinite"/>
    <path d="M39 119 Q36 51 83 23 Q120 2 161 23 Q204 54 201 124 L184 174 Q177 72 120 67 Q62 72 56 174Z" fill="url(#hair)" stroke="#0B1220" stroke-width="3"/><circle cx="120" cy="124" r="86" fill="url(#face)" stroke="#A85F55" stroke-width="2.5"/><ellipse cx="96" cy="91" rx="34" ry="22" fill="#fff" opacity=".08"/>
    <path d="M67 120 Q87 106 107 120" fill="none" stroke="#3B2C35" stroke-width="5" stroke-linecap="round"><animate attributeName="d" values="M67 120 Q87 106 107 120;M67 120 Q87 128 107 120;M67 120 Q87 106 107 120;M67 120 Q87 106 107 120" keyTimes="0;.24;.34;1" dur="3.8s" repeatCount="indefinite"/></path>
    <ellipse cx="152" cy="117" rx="20" ry="18" fill="#fff" stroke="#3B2C35" stroke-width="2"/><g><animateTransform attributeName="transform" type="translate" values="0,0;-3,0;-3,0;3,-1;3,-1;0,0" keyTimes="0;.18;.33;.4;.67;1" dur="3.8s" repeatCount="indefinite"/><circle cx="152" cy="117" r="10" fill="url(#iris)"/><circle cx="152" cy="117" r="5" fill="#08151F"/><circle cx="148" cy="113" r="2.5" fill="#fff"/></g>
    <path d="M65 91 Q86 82 107 91M132 87 Q153 72 175 88" fill="none" stroke="#633E43" stroke-width="4.5" stroke-linecap="round"><animateTransform attributeName="transform" type="translate" values="0,0;0,-3;0,0" dur="3.8s" repeatCount="indefinite"/></path>
    <path d="M86 153 Q119 173 157 146" fill="none" stroke="#8F4E50" stroke-width="4.5" stroke-linecap="round"><animate attributeName="d" values="M86 153 Q119 173 157 146;M83 151 Q119 178 161 143;M86 153 Q119 173 157 146" dur="3.8s" repeatCount="indefinite"/></path>
    <path d="M53 75 Q72 30 121 28 Q172 30 188 73 Q159 55 120 58 Q80 55 53 75Z" fill="url(#hair)"/>
    <g><animateTransform attributeName="transform" type="rotate" values="-1 67 48;2 67 48;-.8 67 48;-1 67 48" dur="5.8s" repeatCount="indefinite"/><path d="M57 51 Q72 35 93 38 Q91 67 67 91 Q60 73 57 51Z" fill="url(#hair)"/><path d="M66 51 Q72 44 82 43" fill="none" stroke="#8392AE" stroke-width="3" opacity=".38"/></g>
    <g><animateTransform attributeName="transform" type="rotate" values="0 104 34;2.4 104 34;-1.2 104 34;0 104 34" dur="6.1s" begin="-.35s" repeatCount="indefinite"/><path d="M88 36 Q107 24 125 34 Q119 65 98 88 Q90 64 88 36Z" fill="url(#hair)"/><path d="M101 37 Q108 34 115 37" fill="none" stroke="#9AA7BE" stroke-width="3" opacity=".42"/></g>
    <g><animateTransform attributeName="transform" type="rotate" values=".5 139 35;2.8 139 35;-1 139 35;.5 139 35" dur="6.35s" begin="-.7s" repeatCount="indefinite"/><path d="M121 34 Q141 24 160 38 Q157 65 135 86 Q126 60 121 34Z" fill="url(#hair)"/><path d="M136 37 Q144 34 151 40" fill="none" stroke="#9AA7BE" stroke-width="3" opacity=".35"/></g>
    <g><animateTransform attributeName="transform" type="rotate" values="1 174 47;3 174 47;-.4 174 47;1 174 47" dur="6.55s" begin="-1s" repeatCount="indefinite"/><path d="M154 38 Q178 36 188 55 Q183 77 164 94 Q160 64 154 38Z" fill="url(#hair)"/></g>
    <g transform="translate(198 72)" fill="#FFE39B"><animateTransform attributeName="transform" type="rotate" values="0;25;-12;0" dur="2.6s" additive="sum" repeatCount="indefinite"/><animateTransform attributeName="transform" type="scale" values=".65;1.2;.8;.65" dur="2.6s" additive="sum" repeatCount="indefinite"/><polygon points="0,-8 2,-2 8,0 2,2 0,8 -2,2 -8,0 -2,-2"/></g>
  </g></g>
</svg>
