<svg xmlns="http://www.w3.org/2000/svg" viewBox="0 0 240 240" width="240" height="240">
  <defs>
    <clipPath id="round"><circle cx="120" cy="120" r="118"/></clipPath>
    <radialGradient id="face" cx="40%" cy="35%"><stop stop-color="#FFE0C2"/><stop offset=".7" stop-color="#F3B98A"/><stop offset="1" stop-color="#C97B63"/></radialGradient>
    <linearGradient id="hair" x1="0" y1="0" x2="1" y2="1"><stop stop-color="#87563F"/><stop offset=".45" stop-color="#4A2C25"/><stop offset="1" stop-color="#211517"/></linearGradient>
    <radialGradient id="iris" data-eye-palette="canonical-blue"><stop stop-color="#8EC5FF"/><stop offset="1" stop-color="#315E9A"/></radialGradient>
  </defs>
  <g clip-path="url(#round)">
    <rect width="240" height="240" fill="#000000"/>
    <g>
      <animateTransform attributeName="transform" type="translate" values="0,0;0,1;0,0" dur="4.2s" repeatCount="indefinite"/>
      <path d="M28 126 Q27 54 72 26 Q120 4 168 26 Q213 54 212 126 L192 174 Q181 78 120 69 Q60 76 48 174Z" fill="url(#hair)" stroke="#171316" stroke-width="3"/>
      <circle cx="120" cy="118" r="84" fill="url(#face)" stroke="#A85F55" stroke-width="2.5"/>
      <ellipse cx="88" cy="113" rx="21" ry="20" fill="#fff" stroke="#3B2C35" stroke-width="2"/>
      <ellipse cx="152" cy="113" rx="21" ry="20" fill="#fff" stroke="#3B2C35" stroke-width="2"/>
      <g>
        <animateTransform attributeName="transform" type="translate" values="0,0;2,0;0,0;-1,0;0,0" dur="3.1s" repeatCount="indefinite"/>
        <circle cx="88" cy="113" r="10" fill="url(#iris)" data-eye-role="iris"/><circle cx="88" cy="113" r="5" fill="#315E9A" data-eye-role="pupil"/><circle cx="84" cy="109" r="2.5" fill="#fff"/>
        <circle cx="152" cy="113" r="10" fill="url(#iris)" data-eye-role="iris"/><circle cx="152" cy="113" r="5" fill="#315E9A" data-eye-role="pupil"/><circle cx="148" cy="109" r="2.5" fill="#fff"/>
      </g>
      <path d="M67 84 Q87 73 107 83 M133 83 Q153 73 173 84" fill="none" stroke="#633E43" stroke-width="4.5" stroke-linecap="round"/>
      <path d="M103 151 Q120 154 137 151" fill="none" stroke="#8F4E50" stroke-width="3.5" stroke-linecap="round"/>
      <path d="M48 75 Q70 27 121 27 Q170 27 191 73 Q153 51 132 57 L120 53 L107 62 L92 57 L76 66 Q60 69 48 75Z" fill="url(#hair)"/>
      <g><animateTransform attributeName="transform" type="rotate" values="-1 67 48;2 67 48;-1 67 48" dur="5.8s" repeatCount="indefinite"/><path d="M54 51 Q73 33 99 39 Q95 53 87 64 L80 57 L72 78 L64 67 L57 83 Q56 65 54 51Z" fill="url(#hair)"/></g>
      <g><animateTransform attributeName="transform" type="rotate" values="0 104 34;2.4 104 34;-1.2 104 34;0 104 34" dur="6.1s" repeatCount="indefinite"/><path d="M83 38 Q111 20 147 34 Q141 50 130 63 L121 53 L111 77 L102 67 L91 92 Q87 64 83 38Z" fill="url(#hair)"/></g>
      <g><animateTransform attributeName="transform" type="rotate" values=".5 139 35;2.8 139 35;-1 139 35;.5 139 35" dur="6.35s" repeatCount="indefinite"/><path d="M116 32 Q151 18 183 43 Q179 59 168 73 L158 62 L147 87 L137 72 L128 95 Q124 62 116 32Z" fill="url(#hair)"/></g>
      <g><animateTransform attributeName="transform" type="rotate" values="1 174 47;3 174 47;-.4 174 47;1 174 47" dur="6.55s" repeatCount="indefinite"/><path d="M151 40 Q179 38 192 57 Q190 70 181 81 L174 72 L165 97 Q162 67 151 40Z" fill="url(#hair)"/></g>
      <g id="blink-eyelids"><ellipse cx="88" cy="113" rx="22" ry="0" fill="#F3B98A"><animate attributeName="ry" values="0;0;20;20;0;0" keyTimes="0;.92;.94;.96;.98;1" dur="5.9s" repeatCount="indefinite"/></ellipse><ellipse cx="152" cy="113" rx="22" ry="0" fill="#F3B98A"><animate attributeName="ry" values="0;0;20;20;0;0" keyTimes="0;.92;.94;.96;.98;1" dur="5.9s" begin=".025s" repeatCount="indefinite"/></ellipse></g>
    </g>
    <g fill="none" stroke="#8EC5FF" stroke-width="4" stroke-linecap="round"><path d="M39 91 Q23 111 39 131"><animate attributeName="opacity" values=".2;1;.2" dur="1.5s" repeatCount="indefinite"/></path><path d="M201 91 Q217 111 201 131"><animate attributeName="opacity" values="1;.2;1" dur="1.5s" repeatCount="indefinite"/></path></g>
    <rect x="49" y="204" width="142" height="27" rx="13.5" fill="#101319" stroke="#8EC5FF" stroke-width="2"/>
    <circle cx="65" cy="217.5" r="4" fill="#8EC5FF"><animate attributeName="opacity" values=".35;1;.35" dur="1.2s" repeatCount="indefinite"/></circle>
    <text x="125" y="222" fill="#e7f4ff" font-family="system-ui,sans-serif" font-size="15" font-weight="700" text-anchor="middle">Escuchando</text>
  </g>
</svg>
