<svg xmlns="http://www.w3.org/2000/svg" viewBox="0 0 240 240" width="240" height="240"><defs><clipPath id="round"><circle cx="120" cy="120" r="118"/></clipPath><radialGradient id="face" cx="40%" cy="35%"><stop stop-color="#FFE0C2"/><stop offset=".7" stop-color="#F3B98A"/><stop offset="1" stop-color="#C97B63"/></radialGradient><linearGradient id="hair" x1="0" y1="0" x2="1" y2="1"><stop stop-color="#87563F"/><stop offset=".45" stop-color="#4A2C25"/><stop offset="1" stop-color="#211517"/></linearGradient><radialGradient id="iris"><stop stop-color="#74D3AE"/><stop offset="1" stop-color="#237A68"/></radialGradient></defs><g clip-path="url(#round)"><rect width="240" height="240" fill="#08151F"/><g><animateTransform attributeName="transform" type="translate" values="0,0;0,1;0,0;0,-.5;0,0" dur="4.8s" repeatCount="indefinite"/><path d="M28 126 Q27 54 72 26 Q120 4 168 26 Q213 54 212 126 L192 174 Q181 78 120 69 Q60 76 48 174Z" fill="url(#hair)" stroke="#171316" stroke-width="3"/><circle cx="120" cy="124" r="90" fill="url(#face)" stroke="#A85F55" stroke-width="2.5"/><ellipse cx="88" cy="118" rx="20" ry="18" fill="#fff" stroke="#3B2C35" stroke-width="2"/><ellipse cx="152" cy="118" rx="20" ry="18" fill="#fff" stroke="#3B2C35" stroke-width="2"/><circle cx="88" cy="118" r="10" fill="url(#iris)"/><circle cx="88" cy="118" r="5" fill="#08151F"/><circle cx="152" cy="118" r="10" fill="url(#iris)"/><circle cx="152" cy="118" r="5" fill="#08151F"/><path d="M68 91 Q87 82 106 90M134 90 Q153 82 172 91" fill="none" stroke="#633E43" stroke-width="4.5" stroke-linecap="round"/><g><animateTransform attributeName="transform" type="translate" values="0,0;0,1;0,3;0,2;0,0;0,2;0,0" keyTimes="0;.14;.31;.48;.61;.82;1" dur=".94s" repeatCount="indefinite"/><ellipse cx="67" cy="150" rx="14" ry="8" fill="#F26E82" opacity=".16"><animate attributeName="cy" values="150;151;153;152;150;152;150" keyTimes="0;.14;.31;.48;.61;.82;1" dur=".94s" repeatCount="indefinite"/></ellipse><ellipse cx="173" cy="150" rx="14" ry="8" fill="#F26E82" opacity=".16"><animate attributeName="cy" values="150;151;153;152;150;152;150" keyTimes="0;.14;.31;.48;.61;.82;1" dur=".94s" repeatCount="indefinite"/></ellipse><path d="M94 157 Q120 154 146 157 Q120 162 94 157 Q94 157 94 157 Q94 157 94 157Z" fill="#572E3B" stroke="#8F4E50" stroke-width="3"><animate attributeName="d" values="M94 157 Q120 154 146 157 Q120 162 94 157 Q94 157 94 157 Q94 157 94 157Z;M101 154 Q120 150 139 154 Q120 166 101 154 Q101 154 101 154 Q101 154 101 154Z;M99 151 Q120 143 141 151 Q143 171 120 179 Q97 171 99 151 Q99 151 99 151Z;M87 154 Q120 143 153 154 Q146 172 120 176 Q94 172 87 154 Q87 154 87 154Z;M101 154 Q120 150 139 154 Q120 166 101 154 Q101 154 101 154 Q101 154 101 154Z;M99 151 Q120 143 141 151 Q143 171 120 179 Q97 171 99 151 Q99 151 99 151Z;M94 157 Q120 154 146 157 Q120 162 94 157 Q94 157 94 157 Q94 157 94 157Z" keyTimes="0;.14;.31;.48;.61;.82;1" dur=".94s" repeatCount="indefinite"/></path></g><path d="M48 75 Q70 27 121 27 Q170 27 191 73 Q153 51 132 57 L120 53 L107 62 L92 57 L76 66 Q60 69 48 75Z" fill="url(#hair)"/><g><animateTransform attributeName="transform" type="rotate" values="-1 67 48;2 67 48;-.8 67 48;-1 67 48" dur="5.8s" repeatCount="indefinite"/><path d="M54 51 Q73 33 99 39 Q95 53 87 64 L80 57 L72 78 L64 67 L57 83 Q56 65 54 51Z" fill="url(#hair)"/></g><g><animateTransform attributeName="transform" type="rotate" values="0 104 34;2.4 104 34;-1.2 104 34;0 104 34" dur="6.1s" begin="-.35s" repeatCount="indefinite"/><path d="M83 38 Q111 20 147 34 Q141 50 130 63 L121 53 L111 77 L102 67 L91 92 Q87 64 83 38Z" fill="url(#hair)"/><path d="M104 38 Q122 29 137 36" fill="none" stroke="#B48060" stroke-width="3" opacity=".4"/></g><g><animateTransform attributeName="transform" type="rotate" values=".5 139 35;2.8 139 35;-1 139 35;.5 139 35" dur="6.35s" begin="-.7s" repeatCount="indefinite"/><path d="M116 32 Q151 18 183 43 Q179 59 168 73 L158 62 L147 87 L137 72 L128 95 Q124 62 116 32Z" fill="url(#hair)"/></g><g><animateTransform attributeName="transform" type="rotate" values="1 174 47;3 174 47;-.4 174 47;1 174 47" dur="6.55s" begin="-1s" repeatCount="indefinite"/><path d="M151 40 Q179 38 192 57 Q190 70 181 81 L174 72 L165 97 Q162 67 151 40Z" fill="url(#hair)"/></g><g id="blink-eyelids" data-blink="single"><ellipse cx="88" cy="118" rx="21" ry="0" fill="#F3B98A"><animate attributeName="ry" values="0;0;18;18;0;0" keyTimes="0;.94;.96;.975;.995;1" dur="5.8s" repeatCount="indefinite"/></ellipse><path d="M72.9 118 Q88 120 103.1 118" fill="none" stroke="#633E43" stroke-width="2.5" stroke-linecap="round" opacity="0"><animate attributeName="opacity" values="0;0;1;1;0;0" keyTimes="0;.94;.96;.975;.995;1" dur="5.8s" repeatCount="indefinite"/></path><ellipse cx="152" cy="118" rx="21" ry="0" fill="#F3B98A"><animate attributeName="ry" values="0;0;18;18;0;0" keyTimes="0;.94;.96;.975;.995;1" dur="5.8s" begin=".025s" repeatCount="indefinite"/></ellipse><path d="M136.9 118 Q152 120 167.1 118" fill="none" stroke="#633E43" stroke-width="2.5" stroke-linecap="round" opacity="0"><animate attributeName="opacity" values="0;0;1;1;0;0" keyTimes="0;.94;.96;.975;.995;1" dur="5.8s" begin=".025s" repeatCount="indefinite"/></path></g></g></g></svg>